<svg xmlns="http://www.w3.org/2000/svg" viewBox="0 0 62.45 58.85"><defs><style>.cls-1{fill:#e52729;stroke:#fff;stroke-miterlimit:10;}</style></defs><g id="Calque_2" data-name="Calque 2"><g id="Calque_1-2" data-name="Calque 1"><path class="cls-1" d="M57.06,29.67c-.61,1.11-1.24,2.19-1.87,3.24-5.07,8.36-10.56,16.43-15.57,24.84a1.25,1.25,0,0,1-.54.57,1.17,1.17,0,0,1-.87-.15c-14.63-6.52-52-35.63-31.88-53.43,4.4-3.89,11.58-2.93,16.23.66S29.87,14.52,32.11,20A46,46,0,0,1,38.65,6c3.2-4.62,9.49-6.3,14.88-5C66.82,4,61.47,21.61,57.06,29.67Z"/></g></g></svg>